<svg width="30" height="30" viewBox="0 0 30 30" fill="none" xmlns="http://www.w3.org/2000/svg">
<circle cx="15" cy="15" r="15" fill="white"/>
<path d="M16.41 19.3992C16.5561 19.3995 16.6976 19.3506 16.81 19.2612C16.8733 19.2108 16.9256 19.149 16.964 19.0792C17.0023 19.0094 17.0259 18.933 17.0335 18.8544C17.041 18.7758 17.0324 18.6966 17.008 18.6212C16.9836 18.5459 16.9439 18.4759 16.8913 18.4152L14.0913 15.1995L16.7913 11.9777C16.8432 11.9163 16.882 11.8457 16.9054 11.7699C16.9288 11.6941 16.9363 11.6146 16.9276 11.536C16.9189 11.4574 16.8941 11.3812 16.8546 11.3118C16.8151 11.2424 16.7617 11.1812 16.6975 11.1317C16.6329 11.0771 16.5571 11.0359 16.4751 11.0107C16.3931 10.9855 16.3065 10.9769 16.2208 10.9853C16.1351 10.9938 16.0522 11.0191 15.9772 11.0598C15.9022 11.1005 15.8368 11.1556 15.785 11.2217L12.7663 14.8215C12.6744 14.9288 12.6241 15.0635 12.6241 15.2024C12.6241 15.3414 12.6744 15.4761 12.7663 15.5834L15.8913 19.1832C15.954 19.2558 16.0336 19.3132 16.1238 19.3507C16.2139 19.3882 16.312 19.4049 16.41 19.3992Z" fill="black"/>
</svg>
