<svg width="30" height="30" viewBox="0 0 30 30" fill="none" xmlns="http://www.w3.org/2000/svg">
<circle cx="15" cy="15" r="15" fill="white"/>
<path d="M13.7501 19.3992C13.6041 19.3995 13.4626 19.3506 13.3501 19.2612C13.2868 19.2108 13.2345 19.149 13.1962 19.0792C13.1578 19.0094 13.1342 18.933 13.1267 18.8544C13.1191 18.7758 13.1278 18.6966 13.1522 18.6212C13.1766 18.5459 13.2162 18.4759 13.2689 18.4152L16.0689 15.1994L13.3689 11.9777C13.317 11.9163 13.2782 11.8457 13.2548 11.7699C13.2314 11.6941 13.2238 11.6146 13.2326 11.536C13.2413 11.4574 13.2661 11.3812 13.3056 11.3118C13.345 11.2424 13.3984 11.1812 13.4626 11.1317C13.5273 11.0771 13.603 11.0359 13.6851 11.0107C13.7671 10.9855 13.8537 10.9769 13.9394 10.9853C14.025 10.9938 14.108 11.0191 14.183 11.0598C14.258 11.1005 14.3234 11.1556 14.3751 11.2217L17.3939 14.8215C17.4858 14.9288 17.5361 15.0635 17.5361 15.2024C17.5361 15.3414 17.4858 15.4761 17.3939 15.5834L14.2689 19.1832C14.2062 19.2558 14.1265 19.3132 14.0364 19.3507C13.9463 19.3882 13.8482 19.4049 13.7501 19.3992Z" fill="black"/>
</svg>
