<svg width="15" height="15" viewBox="0 0 15 15" fill="none" xmlns="http://www.w3.org/2000/svg">
<path fill-rule="evenodd" clip-rule="evenodd" d="M8.086 0.490826C11.9542 0.780441 15 3.91291 15 7.73449C15 11.7471 11.6421 15 7.5 15C3.35786 15 0 11.7471 0 7.73449C0 6.37881 0.383276 5.10984 1.0506 4.02374L1.73291 4.82703C1.26471 5.69678 1 6.68569 1 7.73449C1 11.2121 3.91015 14.0313 7.5 14.0313C11.0899 14.0313 14 11.2121 14 7.73449C14 4.41999 11.3565 1.7036 8.00043 1.45609V1.4546C7.72401 1.45427 7.5 1.23709 7.5 0.969233C7.5 0.701177 7.72433 0.483871 8.00104 0.483871C8.03001 0.483871 8.05837 0.486253 8.086 0.490826ZM2.09601 1.75059C1.87926 1.57798 1.53953 1.59678 1.34998 1.78021C1.15471 1.96918 1.14493 2.29698 1.3194 2.50217L6.18066 8.21916C6.63499 8.75346 7.40801 8.79492 7.92133 8.29816L8.08521 8.13955C8.59223 7.64888 8.55765 6.89624 8.0036 6.45503L2.09601 1.75059ZM5.50104 1.93847C6.05361 1.93847 6.50153 1.50453 6.50153 0.969233C6.50153 0.433941 6.05361 0 5.50104 0C4.94847 0 4.50049 0.433941 4.50049 0.969233C4.50049 1.50453 4.94847 1.93847 5.50104 1.93847Z" fill="black"/>
</svg>
