<svg width="41" height="37" viewBox="0 0 41 37" fill="none" xmlns="http://www.w3.org/2000/svg">
<path d="M11.8085 36.2326C15.0924 36.3425 18.3649 35.793 21.4327 34.6166C24.5006 33.4402 27.3014 31.6607 29.6698 29.3834C32.0383 27.1061 33.9261 24.3771 35.2219 21.3578C36.5177 18.3384 37.195 15.0899 37.214 11.8043C38.7189 9.94204 39.8363 7.79772 40.5007 5.4974C40.5503 5.31565 40.5463 5.12345 40.4892 4.94393C40.4321 4.76441 40.3243 4.60522 40.1788 4.48555C40.0333 4.36587 39.8563 4.2908 39.6691 4.26938C39.482 4.24796 39.2926 4.2811 39.1238 4.36481C38.3365 4.74379 37.4502 4.86621 36.5896 4.71482C35.7291 4.56342 34.9377 4.14585 34.327 3.52093C33.5474 2.66722 32.6044 1.97868 31.5538 1.4961C30.5032 1.01353 29.3665 0.746732 28.2109 0.711526C27.0554 0.676321 25.9045 0.873422 24.8265 1.29115C23.7485 1.70888 22.7653 2.33873 21.9352 3.1434C20.7986 4.24413 19.9661 5.62019 19.5186 7.13781C19.0711 8.65544 19.0238 10.263 19.3813 11.8043C11.9418 12.2485 6.83406 8.71749 2.74787 3.87625C2.62511 3.73723 2.46453 3.63697 2.28574 3.5877C2.10694 3.53844 1.91767 3.5423 1.74104 3.59883C1.5644 3.65535 1.40805 3.76209 1.29107 3.906C1.17409 4.04991 1.10155 4.22477 1.0823 4.40923C0.303862 8.72731 0.865401 13.1802 2.6915 17.1698C4.5176 21.1595 7.52081 24.4948 11.2978 26.7278C8.76531 29.6322 5.20893 31.4462 1.371 31.7911C1.16539 31.8252 0.975579 31.9228 0.828142 32.0701C0.680705 32.2174 0.583019 32.4071 0.548754 32.6127C0.51449 32.8183 0.545362 33.0295 0.637051 33.2166C0.728739 33.4038 0.876655 33.5576 1.0601 33.6566C4.39905 35.3252 8.07597 36.2064 11.8085 36.2326Z" fill="#231F20"/>
</svg>
