<svg width="129" height="40" viewBox="0 0 129 40" fill="none" xmlns="http://www.w3.org/2000/svg">
<path d="M35.81 0.481934L39.498 0.481934V10.8434L35.81 10.8434V0.481934Z" fill="white"/>
<path d="M21.2964 14.9395L24.9844 14.9395L24.9844 25.3009H21.2964L21.2964 14.9395Z" fill="white"/>
<path d="M7.01901 29.6387H10.707L10.707 40.0001H7.01901L7.01901 29.6387Z" fill="white"/>
<path d="M29.2669 0.481934L32.8359 0.481934V10.8434L29.2669 10.8434L29.2669 0.481934Z" fill="white"/>
<path d="M14.7532 14.9395L18.3223 14.9395L18.3223 25.3009H14.7532L14.7532 14.9395Z" fill="white"/>
<path d="M0.47587 29.6387H4.04492L4.04492 40.0001H0.47587L0.47587 29.6387Z" fill="white"/>
<path fill-rule="evenodd" clip-rule="evenodd" d="M34.4555 25.6898C37.5181 25.6898 40.0008 23.1755 40.0008 20.0739C40.0008 16.9723 37.5181 14.458 34.4555 14.458C31.3929 14.458 28.9102 16.9723 28.9102 20.0739C28.9102 23.1755 31.3929 25.6898 34.4555 25.6898ZM34.4558 22.4993C35.7783 22.4993 36.8504 21.4136 36.8504 20.0742C36.8504 18.7349 35.7783 17.6492 34.4558 17.6492C33.1333 17.6492 32.0612 18.7349 32.0612 20.0742C32.0612 21.4136 33.1333 22.4993 34.4558 22.4993Z" fill="white"/>
<path fill-rule="evenodd" clip-rule="evenodd" d="M5.54535 11.2318C8.60796 11.2318 11.0907 8.71747 11.0907 5.6159C11.0907 2.51432 8.60796 0 5.54535 0C2.48274 0 0 2.51432 0 5.6159C0 8.71747 2.48274 11.2318 5.54535 11.2318ZM5.54671 8.04128C6.8692 8.04128 7.94129 6.95555 7.94129 5.61624C7.94129 4.27692 6.8692 3.19119 5.54671 3.19119C4.22422 3.19119 3.15213 4.27692 3.15213 5.61624C3.15213 6.95555 4.22422 8.04128 5.54671 8.04128Z" fill="white"/>
<path d="M29.2656 33.3736V29.6387H39.4969V33.3736H29.2656Z" fill="white"/>
<path d="M0.474609 18.6744L0.474609 14.9395L10.7059 14.9395V18.6744H0.474609Z" fill="white"/>
<path d="M29.2656 40.0002V36.3857H39.4969V40.0002H29.2656Z" fill="white"/>
<path d="M0.474609 25.3005L0.474609 21.686H10.7059V25.3005H0.474609Z" fill="white"/>
<path d="M48.892 20.836L45.21 14.788H47.38L50.068 19.772L48.892 20.836ZM48.542 24V19.8H50.348V24H48.542ZM50.04 20.752L49.088 19.772L51.818 14.788H53.708L50.04 20.752ZM61.3061 24H55.2441V14.788H60.8301V16.188H56.9521V22.6H61.3061V24ZM55.7901 20.01V18.652H60.2981V20.01H55.7901ZM69.2175 24L66.3195 15.712H67.0055L64.1635 24H62.3855L66.0955 14.788H67.6075L71.1215 24H69.2175ZM64.0235 21.396L64.5275 20.01H68.5035L69.2455 21.396H64.0235ZM72.8124 24V14.788H75.5564C76.2564 14.788 76.8631 14.886 77.3764 15.082C77.8898 15.278 78.2864 15.558 78.5664 15.922C78.8464 16.2767 78.9864 16.7013 78.9864 17.196C78.9864 17.6067 78.8931 17.9987 78.7064 18.372C78.5198 18.7453 78.2631 19.0767 77.9364 19.366C77.6191 19.6553 77.2551 19.884 76.8444 20.052C76.4338 20.22 76.0044 20.304 75.5564 20.304H73.4424V19.128H75.7804C76.0418 19.128 76.2798 19.0533 76.4944 18.904C76.7091 18.7547 76.8818 18.5587 77.0124 18.316C77.1431 18.064 77.2084 17.7933 77.2084 17.504C77.2084 17.0747 77.0498 16.7293 76.7324 16.468C76.4244 16.2067 75.9811 16.076 75.4024 16.076H74.5204V24H72.8124ZM79.7284 24.154C79.3364 24.154 78.9911 24.1027 78.6924 24C78.4031 23.888 78.1371 23.7153 77.8944 23.482C77.6518 23.2487 77.3998 22.936 77.1384 22.544L75.4164 19.912L76.8024 19.422L78.8184 21.942C79.0424 22.2127 79.2431 22.4227 79.4204 22.572C79.5978 22.712 79.7611 22.8053 79.9104 22.852C80.0691 22.8987 80.2138 22.922 80.3444 22.922C80.4004 22.922 80.4798 22.9173 80.5824 22.908C80.6944 22.8987 80.7971 22.8753 80.8904 22.838L81.2684 23.832C80.9698 23.9533 80.6944 24.0373 80.4424 24.084C80.1998 24.1307 79.9618 24.154 79.7284 24.154ZM84.988 19.688L85.282 18.708C85.954 18.708 86.5467 18.8153 87.06 19.03C87.5734 19.2447 87.97 19.5433 88.25 19.926C88.5394 20.3087 88.684 20.7613 88.684 21.284C88.684 21.816 88.5347 22.2873 88.236 22.698C87.9374 23.1087 87.5127 23.4307 86.962 23.664C86.4207 23.888 85.772 24 85.016 24H82.328V14.788H85.198C85.7674 14.788 86.2667 14.8813 86.696 15.068C87.1254 15.2453 87.4614 15.502 87.704 15.838C87.956 16.174 88.082 16.566 88.082 17.014C88.082 17.3687 88.0027 17.7093 87.844 18.036C87.6854 18.3533 87.4614 18.638 87.172 18.89C86.892 19.1327 86.5654 19.3287 86.192 19.478C85.8187 19.618 85.4174 19.688 84.988 19.688ZM83.434 18.596H85.184C85.5574 18.596 85.8607 18.484 86.094 18.26C86.3367 18.036 86.458 17.7327 86.458 17.35C86.458 17.0047 86.346 16.7013 86.122 16.44C85.9074 16.1693 85.5014 16.034 84.904 16.034H83.952V22.754H85.296C85.8467 22.754 86.2574 22.6233 86.528 22.362C86.7987 22.1007 86.934 21.7413 86.934 21.284C86.934 20.8267 86.7754 20.4673 86.458 20.206C86.15 19.9353 85.6274 19.8 84.89 19.8H83.434V18.596ZM94.6869 24.182C93.7815 24.182 92.9789 23.9813 92.2789 23.58C91.5789 23.1693 91.0282 22.6093 90.6269 21.9C90.2255 21.1813 90.0249 20.3693 90.0249 19.464C90.0249 18.7173 90.1555 18.0453 90.4169 17.448C90.6782 16.8507 91.0375 16.342 91.4949 15.922C91.9615 15.502 92.4889 15.18 93.0769 14.956C93.6742 14.7227 94.3042 14.606 94.9669 14.606C95.8629 14.606 96.6562 14.8113 97.3469 15.222C98.0469 15.6233 98.5929 16.1787 98.9849 16.888C99.3862 17.5973 99.5869 18.4093 99.5869 19.324C99.5869 20.0707 99.4562 20.7427 99.1949 21.34C98.9335 21.9373 98.5742 22.4507 98.1169 22.88C97.6689 23.3 97.1509 23.622 96.5629 23.846C95.9749 24.07 95.3495 24.182 94.6869 24.182ZM95.0089 22.894C95.5595 22.894 96.0355 22.7587 96.4369 22.488C96.8382 22.2173 97.1462 21.8347 97.3609 21.34C97.5755 20.8453 97.6829 20.2667 97.6829 19.604C97.6829 18.8293 97.5429 18.1667 97.2629 17.616C96.9922 17.0653 96.6235 16.6407 96.1569 16.342C95.6995 16.0433 95.1862 15.894 94.6169 15.894C94.0942 15.894 93.6322 16.0293 93.2309 16.3C92.8389 16.5613 92.5309 16.9393 92.3069 17.434C92.0922 17.9287 91.9849 18.512 91.9849 19.184C91.9849 19.9493 92.1202 20.612 92.3909 21.172C92.6709 21.7227 93.0395 22.1473 93.4969 22.446C93.9542 22.7447 94.4582 22.894 95.0089 22.894ZM105.706 24.182C104.801 24.182 103.998 23.9813 103.298 23.58C102.598 23.1693 102.048 22.6093 101.646 21.9C101.245 21.1813 101.044 20.3693 101.044 19.464C101.044 18.7173 101.175 18.0453 101.436 17.448C101.698 16.8507 102.057 16.342 102.514 15.922C102.981 15.502 103.508 15.18 104.096 14.956C104.694 14.7227 105.324 14.606 105.986 14.606C106.882 14.606 107.676 14.8113 108.366 15.222C109.066 15.6233 109.612 16.1787 110.004 16.888C110.406 17.5973 110.606 18.4093 110.606 19.324C110.606 20.0707 110.476 20.7427 110.214 21.34C109.953 21.9373 109.594 22.4507 109.136 22.88C108.688 23.3 108.17 23.622 107.582 23.846C106.994 24.07 106.369 24.182 105.706 24.182ZM106.028 22.894C106.579 22.894 107.055 22.7587 107.456 22.488C107.858 22.2173 108.166 21.8347 108.38 21.34C108.595 20.8453 108.702 20.2667 108.702 19.604C108.702 18.8293 108.562 18.1667 108.282 17.616C108.012 17.0653 107.643 16.6407 107.176 16.342C106.719 16.0433 106.206 15.894 105.636 15.894C105.114 15.894 104.652 16.0293 104.25 16.3C103.858 16.5613 103.55 16.9393 103.326 17.434C103.112 17.9287 103.004 18.512 103.004 19.184C103.004 19.9493 103.14 20.612 103.41 21.172C103.69 21.7227 104.059 22.1473 104.516 22.446C104.974 22.7447 105.478 22.894 106.028 22.894ZM117.986 24L114.178 19.296L117.594 14.788H119.708L115.606 19.562L115.746 18.764L120.506 24H117.986ZM112.666 24V14.788H114.388V24H112.666Z" fill="white"/>
</svg>
